<?xml version="1.0" encoding="UTF-8" standalone="no"?><!DOCTYPE svg PUBLIC "-//W3C//DTD SVG 1.1//EN" "http://www.w3.org/Graphics/SVG/1.1/DTD/svg11.dtd"><svg width="100%" height="100%" viewBox="0 0 77 32" version="1.1" xmlns="http://www.w3.org/2000/svg" xmlns:xlink="http://www.w3.org/1999/xlink" xml:space="preserve" xmlns:serif="http://www.serif.com/" style="fill-rule:evenodd;clip-rule:evenodd;stroke-linejoin:round;stroke-miterlimit:1.41421;"><g><path d="M8.712,22.442c0,0.221 0.012,0.397 0.035,0.527c0.022,0.13 0.066,0.231 0.132,0.303c0.071,0.065 0.167,0.109 0.288,0.131c0.12,0.023 0.281,0.035 0.483,0.035l0,0.351c-0.176,0 -0.384,-0.001 -0.625,-0.005c-0.241,-0.003 -0.492,-0.005 -0.752,-0.005c-0.26,0 -0.513,0.002 -0.757,0.005c-0.244,0.004 -0.454,0.008 -0.63,0.015l0,-0.361c0.196,0 0.354,-0.012 0.474,-0.035c0.12,-0.022 0.216,-0.066 0.288,-0.131c0.065,-0.072 0.111,-0.173 0.137,-0.303c0.026,-0.13 0.039,-0.306 0.039,-0.527l0,-4.747c0,-0.195 -0.01,-0.351 -0.029,-0.468c-0.02,-0.117 -0.062,-0.205 -0.127,-0.264c-0.066,-0.059 -0.157,-0.098 -0.274,-0.117c-0.117,-0.02 -0.277,-0.029 -0.478,-0.029l0,-0.352c0.136,0.007 0.317,0.011 0.542,0.015c0.224,0.003 0.457,0.001 0.698,-0.005c0.241,0 0.472,-0.002 0.693,-0.005c0.222,-0.003 0.401,-0.008 0.537,-0.015c0.371,0 0.713,0.051 1.026,0.152c0.312,0.101 0.579,0.242 0.8,0.424c0.222,0.189 0.394,0.412 0.518,0.669c0.124,0.258 0.186,0.546 0.186,0.865c0,0.319 -0.059,0.607 -0.176,0.864c-0.117,0.257 -0.274,0.477 -0.469,0.659c-0.195,0.189 -0.421,0.337 -0.679,0.444c-0.257,0.108 -0.529,0.165 -0.815,0.171c-0.143,0.007 -0.313,0.01 -0.508,0.01c-0.195,0 -0.381,0 -0.557,0l0,1.729Zm0,-2.227c0.157,0.02 0.318,0.033 0.484,0.039c0.166,0.007 0.308,0.007 0.425,0c0.39,-0.013 0.711,-0.161 0.962,-0.444c0.25,-0.283 0.376,-0.676 0.376,-1.177c0,-0.293 -0.051,-0.55 -0.152,-0.772c-0.101,-0.221 -0.229,-0.403 -0.386,-0.546c-0.162,-0.15 -0.349,-0.261 -0.561,-0.332c-0.212,-0.072 -0.428,-0.108 -0.649,-0.108c-0.072,0 -0.16,0.005 -0.264,0.015c-0.104,0.01 -0.182,0.018 -0.235,0.024l0,3.301Z" style="fill:#9aa1a4;fill-rule:nonzero;"/><path d="M13.107,17.354c0,-0.163 -0.006,-0.292 -0.02,-0.386c-0.013,-0.094 -0.039,-0.164 -0.078,-0.21c-0.045,-0.046 -0.11,-0.073 -0.195,-0.083c-0.085,-0.01 -0.199,-0.015 -0.342,-0.015l0,-0.293c0.215,-0.039 0.425,-0.102 0.63,-0.19c0.205,-0.088 0.386,-0.2 0.542,-0.337l0.361,0c-0.019,0.176 -0.034,0.373 -0.043,0.591c-0.01,0.218 -0.015,0.402 -0.015,0.552l0,5.761c0,0.261 0.042,0.441 0.127,0.542c0.084,0.101 0.273,0.152 0.566,0.152l0,0.361c-0.136,0 -0.306,-0.002 -0.508,-0.005c-0.201,-0.003 -0.406,-0.005 -0.615,-0.005c-0.208,0 -0.41,0 -0.605,0c-0.196,0 -0.355,0.003 -0.479,0.01l0,-0.361c0.3,0 0.487,-0.043 0.562,-0.127c0.075,-0.085 0.112,-0.274 0.112,-0.567l0,-5.39Z" style="fill:#9aa1a4;fill-rule:nonzero;"/><path d="M17.921,21.485c-0.651,0.162 -1.119,0.333 -1.406,0.512c-0.286,0.179 -0.429,0.406 -0.429,0.679c0,0.28 0.061,0.465 0.185,0.557c0.124,0.091 0.303,0.136 0.537,0.136c0.202,0 0.405,-0.063 0.611,-0.19c0.205,-0.127 0.372,-0.262 0.502,-0.405l0,-1.289Zm1.7,1.884c-0.144,0.137 -0.301,0.269 -0.474,0.396c-0.172,0.127 -0.363,0.19 -0.571,0.19c-0.196,0 -0.35,-0.066 -0.464,-0.2c-0.114,-0.133 -0.174,-0.278 -0.181,-0.435c-0.136,0.144 -0.343,0.285 -0.62,0.425c-0.277,0.14 -0.591,0.21 -0.942,0.21c-0.332,0 -0.606,-0.101 -0.821,-0.302c-0.214,-0.202 -0.315,-0.456 -0.302,-0.762c0.006,-0.254 0.081,-0.469 0.224,-0.645c0.144,-0.176 0.336,-0.332 0.576,-0.468c0.241,-0.137 0.523,-0.258 0.845,-0.362c0.322,-0.104 0.666,-0.211 1.03,-0.322l0,-0.635c0,-0.273 -0.063,-0.491 -0.19,-0.654c-0.127,-0.163 -0.35,-0.244 -0.669,-0.244c-0.234,0 -0.436,0.068 -0.605,0.205c-0.17,0.137 -0.258,0.312 -0.264,0.527c0,0.163 -0.041,0.287 -0.122,0.371c-0.081,0.085 -0.191,0.127 -0.327,0.127c-0.137,0 -0.231,-0.037 -0.283,-0.112c-0.053,-0.075 -0.079,-0.171 -0.079,-0.288c0,-0.189 0.082,-0.363 0.245,-0.523c0.162,-0.159 0.446,-0.346 0.849,-0.561c0.215,-0.117 0.392,-0.204 0.532,-0.259c0.14,-0.055 0.302,-0.083 0.484,-0.083c0.351,0 0.651,0.099 0.898,0.298c0.248,0.198 0.371,0.483 0.371,0.854l0,2.637c0,0.339 0.057,0.524 0.171,0.557c0.114,0.032 0.321,-0.056 0.62,-0.264l0.069,0.322Z" style="fill:#9aa1a4;fill-rule:nonzero;"/><path d="M21.671,22.842c0,0.267 0.038,0.433 0.113,0.498c0.075,0.065 0.268,0.098 0.581,0.098l0,0.351c-0.091,0 -0.181,0 -0.269,0c-0.088,0 -0.177,-0.003 -0.268,-0.01c-0.091,0 -0.184,-0.001 -0.279,-0.004c-0.094,-0.004 -0.184,-0.005 -0.268,-0.005c-0.195,0 -0.388,0.003 -0.576,0.009c-0.189,0.007 -0.371,0.01 -0.547,0.01l0,-0.351c0.299,0 0.486,-0.033 0.561,-0.098c0.075,-0.065 0.113,-0.231 0.113,-0.498l0,-2.363c0,-0.319 -0.03,-0.523 -0.088,-0.611c-0.059,-0.088 -0.218,-0.132 -0.479,-0.132l0,-0.302c0.209,-0.033 0.404,-0.085 0.586,-0.156c0.182,-0.072 0.352,-0.176 0.508,-0.313l0.361,0c-0.019,0.176 -0.032,0.371 -0.039,0.586c-0.006,0.215 -0.01,0.4 -0.01,0.557l0,2.734Zm-0.449,-6.484c0.163,0 0.305,0.058 0.425,0.175c0.121,0.118 0.181,0.258 0.181,0.42c0,0.17 -0.06,0.311 -0.181,0.425c-0.12,0.114 -0.262,0.171 -0.425,0.171c-0.169,0 -0.311,-0.057 -0.425,-0.171c-0.113,-0.114 -0.17,-0.255 -0.17,-0.425c0,-0.162 0.057,-0.302 0.17,-0.42c0.114,-0.117 0.256,-0.175 0.425,-0.175Z" style="fill:#9aa1a4;fill-rule:nonzero;"/><path d="M24.377,18.965c-0.02,0.176 -0.033,0.326 -0.04,0.449c-0.006,0.124 -0.009,0.231 -0.009,0.322c0.149,-0.104 0.293,-0.203 0.429,-0.297c0.137,-0.095 0.277,-0.178 0.42,-0.249c0.137,-0.072 0.28,-0.129 0.43,-0.171c0.15,-0.043 0.309,-0.064 0.479,-0.064c0.449,0 0.761,0.147 0.937,0.44c0.176,0.293 0.264,0.647 0.264,1.064l0,2.285c0,0.261 0.044,0.441 0.132,0.542c0.087,0.101 0.281,0.152 0.581,0.152l0,0.351l-1.114,0c-0.234,0 -0.455,0.002 -0.664,0.005c-0.208,0.003 -0.355,0.005 -0.439,0.005l0,-0.361c0.28,0 0.46,-0.051 0.542,-0.152c0.081,-0.101 0.122,-0.281 0.122,-0.542l0,-2.295c0,-0.312 -0.07,-0.533 -0.21,-0.664c-0.14,-0.13 -0.36,-0.195 -0.659,-0.195c-0.085,0.007 -0.184,0.029 -0.298,0.068c-0.114,0.039 -0.23,0.092 -0.347,0.157c-0.117,0.058 -0.229,0.123 -0.337,0.195c-0.107,0.072 -0.197,0.137 -0.268,0.195l0,2.539c0,0.261 0.042,0.441 0.127,0.542c0.084,0.101 0.28,0.152 0.586,0.152l0,0.361c-0.098,-0.007 -0.251,-0.011 -0.459,-0.015c-0.209,-0.003 -0.43,-0.005 -0.664,-0.005c-0.235,0 -0.456,0.002 -0.664,0.005c-0.209,0.004 -0.355,0.008 -0.44,0.015l0,-0.361c0.287,0 0.47,-0.051 0.552,-0.152c0.081,-0.101 0.122,-0.281 0.122,-0.542l0,-2.265c0,-0.319 -0.029,-0.523 -0.088,-0.611c-0.059,-0.088 -0.218,-0.132 -0.479,-0.132l0,-0.302c0.209,-0.033 0.404,-0.085 0.586,-0.156c0.183,-0.072 0.349,-0.176 0.498,-0.313l0.372,0Z" style="fill:#9aa1a4;fill-rule:nonzero;"/><path d="M29.494,22.901c0.189,0 0.35,0.065 0.483,0.195c0.134,0.13 0.2,0.29 0.2,0.478c0,0.189 -0.066,0.35 -0.2,0.484c-0.133,0.133 -0.294,0.2 -0.483,0.2c-0.189,0 -0.35,-0.067 -0.484,-0.2c-0.133,-0.134 -0.2,-0.295 -0.2,-0.484c0,-0.188 0.067,-0.348 0.2,-0.478c0.134,-0.13 0.295,-0.195 0.484,-0.195Z" style="fill:#9aa1a4;fill-rule:nonzero;"/><path d="M38.293,23.897l-0.45,0l-4.912,-6.084l0,4.638c0,0.228 0.012,0.407 0.034,0.537c0.023,0.131 0.07,0.228 0.142,0.293c0.065,0.072 0.16,0.116 0.283,0.132c0.124,0.017 0.287,0.025 0.489,0.025l0,0.351c-0.163,0 -0.36,-0.001 -0.591,-0.005c-0.231,-0.003 -0.471,-0.005 -0.718,-0.005c-0.247,0 -0.487,0.002 -0.718,0.005c-0.231,0.004 -0.425,0.008 -0.581,0.015l0,-0.361c0.215,0 0.392,-0.01 0.532,-0.03c0.14,-0.019 0.249,-0.061 0.327,-0.127c0.085,-0.071 0.144,-0.17 0.176,-0.297c0.033,-0.127 0.049,-0.302 0.049,-0.523l0,-4.707c0,-0.371 -0.094,-0.62 -0.283,-0.747c-0.189,-0.127 -0.514,-0.19 -0.977,-0.19l0,-0.362c0.078,0.013 0.196,0.02 0.352,0.02c0.156,0 0.319,0 0.488,0c0.169,0 0.329,-0.002 0.479,-0.005c0.149,-0.003 0.26,-0.008 0.332,-0.015l4.951,5.987l0,-4.698c0,-0.195 -0.012,-0.353 -0.034,-0.473c-0.023,-0.121 -0.07,-0.214 -0.142,-0.279c-0.065,-0.065 -0.161,-0.109 -0.288,-0.131c-0.127,-0.023 -0.295,-0.038 -0.503,-0.044l0,-0.372c0.124,0.007 0.303,0.012 0.537,0.015c0.235,0.003 0.479,0.005 0.733,0.005c0.254,0 0.496,-0.002 0.727,-0.005c0.231,-0.003 0.405,-0.008 0.523,-0.015l0,0.372c-0.222,0 -0.396,0.009 -0.523,0.029c-0.127,0.019 -0.223,0.062 -0.288,0.127c-0.065,0.058 -0.106,0.15 -0.122,0.273c-0.016,0.124 -0.024,0.29 -0.024,0.498l0,6.153Z" style="fill:#9aa1a4;fill-rule:nonzero;"/><path d="M40.539,20.938c-0.007,0.026 -0.012,0.101 -0.015,0.224c-0.003,0.124 0.002,0.274 0.015,0.449c0.026,0.482 0.162,0.881 0.41,1.197c0.247,0.316 0.579,0.473 0.996,0.473c0.293,0 0.552,-0.065 0.776,-0.195c0.225,-0.13 0.425,-0.303 0.601,-0.517l0.312,0.185c-0.201,0.352 -0.462,0.64 -0.781,0.864c-0.319,0.225 -0.683,0.337 -1.094,0.337c-0.293,0 -0.564,-0.06 -0.815,-0.18c-0.251,-0.121 -0.467,-0.285 -0.649,-0.494c-0.189,-0.214 -0.334,-0.463 -0.435,-0.747c-0.101,-0.283 -0.151,-0.59 -0.151,-0.923c0,-0.416 0.052,-0.789 0.156,-1.118c0.104,-0.328 0.25,-0.607 0.439,-0.835c0.183,-0.228 0.402,-0.402 0.659,-0.522c0.258,-0.121 0.536,-0.181 0.835,-0.181c0.202,0 0.407,0.034 0.616,0.103c0.208,0.068 0.394,0.171 0.556,0.307c0.163,0.137 0.297,0.311 0.401,0.523c0.104,0.211 0.159,0.46 0.166,0.747c0,0.072 -0.002,0.127 -0.005,0.166c-0.003,0.039 -0.015,0.068 -0.034,0.088c-0.013,0.019 -0.039,0.032 -0.078,0.039c-0.04,0.006 -0.092,0.01 -0.157,0.01l-2.724,0Zm1.923,-0.43c0.079,0 0.132,-0.011 0.162,-0.034c0.029,-0.023 0.044,-0.077 0.044,-0.161c0,-0.209 -0.082,-0.415 -0.245,-0.62c-0.162,-0.206 -0.384,-0.308 -0.664,-0.308c-0.332,0 -0.595,0.104 -0.791,0.312c-0.195,0.209 -0.319,0.479 -0.371,0.811l1.865,0Z" style="fill:#9aa1a4;fill-rule:nonzero;"/><path d="M45.461,22.471c0,0.364 0.045,0.607 0.136,0.727c0.091,0.121 0.209,0.181 0.352,0.181c0.091,0 0.234,-0.036 0.43,-0.107c0.195,-0.072 0.351,-0.163 0.468,-0.274l0.196,0.283c-0.196,0.202 -0.412,0.365 -0.65,0.489c-0.237,0.123 -0.486,0.185 -0.747,0.185c-0.319,0 -0.57,-0.086 -0.752,-0.259c-0.182,-0.172 -0.273,-0.424 -0.273,-0.756l0,-3.174l-0.674,0l0,-0.264c0.332,-0.085 0.578,-0.244 0.737,-0.478c0.16,-0.235 0.275,-0.56 0.347,-0.977l0.43,0l0,1.182l1.552,0l0,0.537l-1.552,0l0,2.705Z" style="fill:#9aa1a4;fill-rule:nonzero;"/><path d="M48.019,20.274c-0.104,-0.326 -0.21,-0.539 -0.317,-0.64c-0.108,-0.101 -0.269,-0.151 -0.484,-0.151l0,-0.391c0.092,0.013 0.231,0.019 0.42,0.019c0.189,0 0.388,0 0.596,0c0.208,0 0.409,-0.001 0.601,-0.004c0.192,-0.004 0.343,-0.009 0.454,-0.015l0,0.391c-0.267,0 -0.435,0.037 -0.503,0.112c-0.069,0.075 -0.077,0.2 -0.025,0.376l1.035,2.705l0.958,-2.481c0.039,-0.175 0.011,-0.333 -0.083,-0.473c-0.095,-0.14 -0.292,-0.217 -0.591,-0.23l0,-0.4c0.136,0.013 0.301,0.019 0.493,0.019c0.192,0 0.386,0 0.581,0c0.202,0 0.399,-0.001 0.591,-0.004c0.192,-0.004 0.356,-0.009 0.493,-0.015l0,0.4c-0.293,0.013 -0.467,0.061 -0.523,0.142c-0.055,0.081 -0.053,0.246 0.005,0.493l0.948,2.539l1.005,-2.568c0.098,-0.235 0.118,-0.394 0.059,-0.479c-0.059,-0.084 -0.241,-0.13 -0.547,-0.136l0,-0.391c0.124,0.013 0.265,0.019 0.425,0.019c0.159,0 0.321,0 0.483,0c0.157,0 0.313,-0.001 0.469,-0.004c0.156,-0.004 0.293,-0.009 0.41,-0.015l0,0.391c-0.234,0 -0.403,0.063 -0.508,0.19c-0.104,0.127 -0.201,0.304 -0.293,0.532l-1.494,3.731l-0.312,0l-1.26,-3.233l-1.299,3.233l-0.312,0l-1.475,-3.662Z" style="fill:#9aa1a4;fill-rule:nonzero;"/><path d="M60.314,21.436c0,0.345 -0.063,0.67 -0.19,0.976c-0.127,0.306 -0.298,0.573 -0.513,0.801c-0.215,0.228 -0.467,0.409 -0.757,0.542c-0.29,0.134 -0.6,0.2 -0.933,0.2c-0.338,0 -0.659,-0.057 -0.961,-0.171c-0.303,-0.114 -0.568,-0.278 -0.796,-0.493c-0.228,-0.215 -0.407,-0.475 -0.537,-0.781c-0.131,-0.306 -0.196,-0.648 -0.196,-1.025c0,-0.339 0.059,-0.663 0.176,-0.972c0.117,-0.309 0.28,-0.578 0.488,-0.806c0.209,-0.228 0.458,-0.41 0.747,-0.547c0.29,-0.136 0.607,-0.205 0.953,-0.205c0.358,0 0.69,0.059 0.996,0.176c0.306,0.117 0.573,0.283 0.8,0.498c0.222,0.215 0.398,0.475 0.528,0.781c0.13,0.306 0.195,0.648 0.195,1.026Zm-0.977,0.107c0,-0.228 -0.029,-0.47 -0.087,-0.727c-0.059,-0.258 -0.147,-0.497 -0.264,-0.718c-0.124,-0.215 -0.282,-0.396 -0.474,-0.542c-0.192,-0.147 -0.421,-0.22 -0.688,-0.22c-0.261,0 -0.482,0.065 -0.664,0.195c-0.183,0.131 -0.329,0.293 -0.44,0.489c-0.117,0.202 -0.2,0.423 -0.249,0.664c-0.049,0.241 -0.073,0.472 -0.073,0.693c0,0.208 0.026,0.44 0.078,0.693c0.052,0.254 0.14,0.492 0.264,0.713c0.117,0.228 0.272,0.417 0.464,0.567c0.192,0.15 0.425,0.224 0.698,0.224c0.254,0 0.472,-0.065 0.654,-0.195c0.183,-0.13 0.332,-0.296 0.449,-0.498c0.111,-0.195 0.194,-0.413 0.249,-0.654c0.056,-0.241 0.083,-0.469 0.083,-0.684Z" style="fill:#9aa1a4;fill-rule:nonzero;"/><path d="M62.462,19.903c0.163,-0.254 0.368,-0.476 0.616,-0.665c0.247,-0.188 0.478,-0.283 0.693,-0.283c0.137,0 0.278,0.046 0.425,0.137c0.146,0.091 0.22,0.244 0.22,0.459c0,0.156 -0.057,0.288 -0.171,0.395c-0.114,0.108 -0.236,0.162 -0.366,0.162c-0.098,0 -0.178,-0.013 -0.24,-0.039c-0.062,-0.027 -0.115,-0.056 -0.161,-0.088c-0.045,-0.033 -0.088,-0.064 -0.127,-0.093c-0.039,-0.029 -0.088,-0.044 -0.146,-0.044c-0.072,0 -0.15,0.023 -0.235,0.068c-0.084,0.046 -0.166,0.108 -0.244,0.186c-0.078,0.071 -0.141,0.159 -0.19,0.263c-0.049,0.105 -0.074,0.215 -0.074,0.333l0,2.05c0,0.15 0.01,0.27 0.03,0.362c0.019,0.091 0.065,0.162 0.137,0.214c0.078,0.046 0.187,0.077 0.327,0.093c0.14,0.017 0.333,0.025 0.581,0.025l0,0.361c-0.144,-0.007 -0.336,-0.011 -0.576,-0.015c-0.241,-0.003 -0.492,-0.005 -0.752,-0.005c-0.267,0 -0.524,0.002 -0.772,0.005c-0.247,0.004 -0.443,0.008 -0.586,0.015l0,-0.361c0.176,0 0.314,-0.007 0.415,-0.02c0.101,-0.013 0.178,-0.042 0.23,-0.088c0.052,-0.045 0.086,-0.115 0.102,-0.21c0.017,-0.094 0.025,-0.219 0.025,-0.376l0,-2.265c0,-0.319 -0.03,-0.523 -0.088,-0.611c-0.059,-0.088 -0.218,-0.132 -0.479,-0.132l0,-0.302c0.209,-0.033 0.404,-0.085 0.586,-0.156c0.182,-0.072 0.352,-0.176 0.508,-0.313l0.361,0c-0.019,0.156 -0.032,0.316 -0.039,0.479c-0.006,0.162 -0.01,0.315 -0.01,0.459Z" style="fill:#9aa1a4;fill-rule:nonzero;"/><path d="M67.629,20.088c0.253,-0.228 0.379,-0.386 0.375,-0.474c-0.003,-0.087 -0.151,-0.131 -0.444,-0.131l0,-0.391c0.091,0.013 0.235,0.021 0.43,0.024c0.195,0.004 0.4,0.005 0.615,0.005c0.215,0 0.418,-0.001 0.61,-0.005c0.192,-0.003 0.331,-0.011 0.415,-0.024l0,0.391c-0.149,0 -0.281,0.014 -0.395,0.044c-0.114,0.029 -0.22,0.066 -0.317,0.112c-0.098,0.052 -0.194,0.111 -0.289,0.176c-0.094,0.065 -0.19,0.136 -0.288,0.214l-1.279,1.084l1.65,1.885c0.189,0.215 0.385,0.345 0.586,0.391c0.202,0.045 0.407,0.071 0.616,0.078l0,0.332c-0.078,0 -0.188,-0.002 -0.327,-0.005c-0.14,-0.003 -0.285,-0.005 -0.435,-0.005c-0.15,0 -0.295,0.002 -0.435,0.005c-0.14,0.003 -0.245,0.005 -0.317,0.005c-0.052,-0.059 -0.111,-0.129 -0.176,-0.21c-0.065,-0.081 -0.127,-0.158 -0.185,-0.229l-1.524,-1.788l-0.273,0.235l0,0.937c0,0.157 0.006,0.282 0.019,0.376c0.013,0.095 0.046,0.165 0.098,0.21c0.046,0.046 0.116,0.075 0.21,0.088c0.094,0.013 0.223,0.02 0.386,0.02l0,0.361c-0.104,-0.007 -0.261,-0.011 -0.469,-0.015c-0.208,-0.003 -0.43,-0.005 -0.664,-0.005c-0.228,0 -0.446,0.002 -0.654,0.005c-0.209,0.004 -0.358,0.008 -0.45,0.015l0,-0.361c0.15,0 0.271,-0.007 0.362,-0.02c0.091,-0.013 0.159,-0.042 0.205,-0.088c0.045,-0.045 0.076,-0.115 0.093,-0.21c0.016,-0.094 0.024,-0.219 0.024,-0.376l0,-5.39c0,-0.163 -0.007,-0.292 -0.02,-0.386c-0.013,-0.094 -0.039,-0.164 -0.078,-0.21c-0.045,-0.046 -0.11,-0.073 -0.195,-0.083c-0.085,-0.01 -0.199,-0.015 -0.342,-0.015l0,-0.293c0.215,-0.039 0.425,-0.102 0.63,-0.19c0.205,-0.088 0.383,-0.2 0.532,-0.337l0.371,0c-0.019,0.176 -0.034,0.373 -0.044,0.591c-0.009,0.218 -0.014,0.402 -0.014,0.552l0,4.267l1.387,-1.162Z" style="fill:#9aa1a4;fill-rule:nonzero;"/></g><rect x="7.514" y="8.16" width="62.4" height="0.96" style="fill:#98a1a4;"/></svg>